<svg xmlns="http://www.w3.org/2000/svg" viewBox="0 0 221.41 360.341" height="240.228" width="147.606"><g transform="translate(-144.059 -87.502)"><circle cx="279.983" cy="132.322" r="5" fill="none" stroke="#000"/><text style="line-height:125%" x="140.814" y="222.061" font-weight="400" font-size="37.333" font-family="sans-serif" letter-spacing="0" word-spacing="0"><tspan x="140.814" y="222.061">Upper</tspan></text><text style="line-height:125%" x="142.053" y="353.663" font-weight="400" font-size="37.333" font-family="sans-serif" letter-spacing="0" word-spacing="0"><tspan x="142.053" y="353.663">Lower</tspan></text><path d="M280 276.103h58.773" fill="none" stroke="#000" stroke-width=".865"/><circle cx="343.912" cy="276.103" r="5" fill="none" stroke="#000"/><circle cx="280" cy="276.393" r="2" stroke="#000"/><text style="line-height:125%" x="260.511" y="115.867" font-weight="400" font-size="37.333" font-family="sans-serif" letter-spacing="0" word-spacing="0"><tspan x="260.511" y="115.867">Vi</tspan></text><text style="line-height:125%" x="322.065" y="257.984" font-weight="400" font-size="37.333" font-family="sans-serif" letter-spacing="0" word-spacing="0"><tspan x="322.065" y="257.984">Vo</tspan></text><path d="M279.995 412.358l.005-17.01m-.005 32.013v-15.003m-20.003 15.003h39.996m-23.998 19.983h8m-16-10h24M280 285.349v25l15 5-30 10 30 10-30 10 30 10-30 10 15 5v25m0-127.99v18m0-128v25l15 5-30 10 30 10-30 10 30 10-30 10 15 5v25m0-109.997v-20" fill="none" stroke="#000"/></g></svg>